<svg xmlns="http://www.w3.org/2000/svg" viewBox="0 0 1280 764" width="1280" height="764" role="img" aria-label="Layout of the Executive summary page: 18 visuals on a 1280 by 720 canvas">
  <rect width="1280" height="764" fill="#0c0c0f"/>
  <text x="20" y="27" fill="#f2f2f4" font-size="15" font-weight="700">Executive summary</text>
  <text x="1260" y="27" fill="#7d7d85" font-size="11.5" text-anchor="end">page 1 of 19 · 18 visuals · card, column, filter_panel, filters_button, line, nav, page_header, panel_background, panel_clear, panel_close, panel_title, slicer, table</text>
  <g transform="translate(0 44)">
  <g><rect x="24" y="16" width="720" height="56" rx="8" fill="#141416" stroke="#2c2c31" stroke-width="1"/>
  <rect x="24" y="16" width="4" height="56" rx="2" fill="#7d7d85"/>
  <text x="38" y="37" fill="#f2f2f4" font-size="12.5" font-weight="600">Page Header</text>
  <text x="38" y="53" fill="#7d7d85" font-size="10.5" letter-spacing="0.06em">PAGE HEADER</text>
  </g>
  <g><rect x="1168" y="24" width="88" height="40" rx="8" fill="#141416" stroke="#2c2c31" stroke-width="1"/>
  <rect x="1168" y="24" width="4" height="40" rx="2" fill="#7d7d85"/>
  <text x="1182" y="45" fill="#f2f2f4" font-size="12.5" font-weight="600">Filters Bu…</text>
  <text x="1182" y="61" fill="#7d7d85" font-size="10.5" letter-spacing="0.06em">FILTERS BUTTON</text>
  </g>
  <g><rect x="1064" y="24" width="88" height="40" rx="8" fill="#141416" stroke="#2c2c31" stroke-width="1"/>
  <rect x="1064" y="24" width="4" height="40" rx="2" fill="#7d7d85"/>
  <text x="1078" y="45" fill="#f2f2f4" font-size="12.5" font-weight="600">Nav</text>
  <text x="1078" y="61" fill="#7d7d85" font-size="10.5" letter-spacing="0.06em">NAV</text>
  </g>
  <g><rect x="20" y="88" width="300" height="107" rx="8" fill="#141416" stroke="#2c2c31" stroke-width="1"/>
  <rect x="20" y="88" width="4" height="107" rx="2" fill="#3987e5"/>
  <text x="34" y="109" fill="#f2f2f4" font-size="12.5" font-weight="600">Pocket revenue</text>
  <text x="34" y="125" fill="#3987e5" font-size="10.5" letter-spacing="0.06em">CARD</text>
  <text x="34" y="143" fill="#a6a6ad" font-size="10.5" font-family="ui-monospace, SFMono-Regular, Menlo, monospace">[Pocket revenue]</text>
  </g>
  <g><rect x="330" y="88" width="296" height="107" rx="8" fill="#141416" stroke="#2c2c31" stroke-width="1"/>
  <rect x="330" y="88" width="4" height="107" rx="2" fill="#3987e5"/>
  <text x="344" y="109" fill="#f2f2f4" font-size="12.5" font-weight="600">Pocket margin %</text>
  <text x="344" y="125" fill="#3987e5" font-size="10.5" letter-spacing="0.06em">CARD</text>
  <text x="344" y="143" fill="#a6a6ad" font-size="10.5" font-family="ui-monospace, SFMono-Regular, Menlo, monospace">[Pocket margin %]</text>
  </g>
  <g><rect x="634" y="88" width="300" height="107" rx="8" fill="#141416" stroke="#2c2c31" stroke-width="1"/>
  <rect x="634" y="88" width="4" height="107" rx="2" fill="#3987e5"/>
  <text x="648" y="109" fill="#f2f2f4" font-size="12.5" font-weight="600">Leakage %</text>
  <text x="648" y="125" fill="#3987e5" font-size="10.5" letter-spacing="0.06em">CARD</text>
  <text x="648" y="143" fill="#a6a6ad" font-size="10.5" font-family="ui-monospace, SFMono-Regular, Menlo, monospace">[Leakage %]</text>
  </g>
  <g><rect x="942" y="88" width="318" height="107" rx="8" fill="#141416" stroke="#2c2c31" stroke-width="1"/>
  <rect x="942" y="88" width="4" height="107" rx="2" fill="#3987e5"/>
  <text x="956" y="109" fill="#f2f2f4" font-size="12.5" font-weight="600">Margin at risk</text>
  <text x="956" y="125" fill="#3987e5" font-size="10.5" letter-spacing="0.06em">CARD</text>
  <text x="956" y="143" fill="#a6a6ad" font-size="10.5" font-family="ui-monospace, SFMono-Regular, Menlo, monospace">[Margin at risk]</text>
  </g>
  <g><rect x="20" y="208" width="620" height="246" rx="8" fill="#141416" stroke="#2c2c31" stroke-width="1"/>
  <rect x="20" y="208" width="4" height="246" rx="2" fill="#199e70"/>
  <text x="34" y="229" fill="#f2f2f4" font-size="12.5" font-weight="600">Realised price against cost</text>
  <text x="34" y="245" fill="#199e70" font-size="10.5" letter-spacing="0.06em">LINE</text>
  <text x="34" y="263" fill="#a6a6ad" font-size="10.5" font-family="ui-monospace, SFMono-Regular, Menlo, monospace">dim_month[month_name]</text>
  <text x="34" y="278" fill="#a6a6ad" font-size="10.5" font-family="ui-monospace, SFMono-Regular, Menlo, monospace">[List price per unit]</text>
  <text x="34" y="293" fill="#a6a6ad" font-size="10.5" font-family="ui-monospace, SFMono-Regular, Menlo, monospace">[Pocket price per unit]</text>
  <text x="34" y="308" fill="#a6a6ad" font-size="10.5" font-family="ui-monospace, SFMono-Regular, Menlo, monospace">[Unit cost]</text>
  </g>
  <g><rect x="654" y="208" width="606" height="246" rx="8" fill="#141416" stroke="#2c2c31" stroke-width="1"/>
  <rect x="654" y="208" width="4" height="246" rx="2" fill="#199e70"/>
  <text x="668" y="229" fill="#f2f2f4" font-size="12.5" font-weight="600">Leakage, month by month</text>
  <text x="668" y="245" fill="#199e70" font-size="10.5" letter-spacing="0.06em">LINE</text>
  <text x="668" y="263" fill="#a6a6ad" font-size="10.5" font-family="ui-monospace, SFMono-Regular, Menlo, monospace">dim_month[month_name]</text>
  <text x="668" y="278" fill="#a6a6ad" font-size="10.5" font-family="ui-monospace, SFMono-Regular, Menlo, monospace">[Leakage %]</text>
  </g>
  <g><rect x="20" y="470" width="620" height="234" rx="8" fill="#141416" stroke="#2c2c31" stroke-width="1"/>
  <rect x="20" y="470" width="4" height="234" rx="2" fill="#c98500"/>
  <text x="34" y="491" fill="#f2f2f4" font-size="12.5" font-weight="600">What moved the margin</text>
  <text x="34" y="507" fill="#c98500" font-size="10.5" letter-spacing="0.06em">COLUMN</text>
  <text x="34" y="525" fill="#a6a6ad" font-size="10.5" font-family="ui-monospace, SFMono-Regular, Menlo, monospace">margin_bridge_effects[effect]</text>
  <text x="34" y="540" fill="#a6a6ad" font-size="10.5" font-family="ui-monospace, SFMono-Regular, Menlo, monospace">[Bridge amount]</text>
  </g>
  <g><rect x="654" y="470" width="606" height="234" rx="8" fill="#141416" stroke="#2c2c31" stroke-width="1"/>
  <rect x="654" y="470" width="4" height="234" rx="2" fill="#7d7d85"/>
  <text x="668" y="491" fill="#f2f2f4" font-size="12.5" font-weight="600">Where the work is</text>
  <text x="668" y="507" fill="#7d7d85" font-size="10.5" letter-spacing="0.06em">TABLE</text>
  <text x="668" y="525" fill="#a6a6ad" font-size="10.5" font-family="ui-monospace, SFMono-Regular, Menlo, monospace">guardrail_summary[code]</text>
  <text x="668" y="540" fill="#a6a6ad" font-size="10.5" font-family="ui-monospace, SFMono-Regular, Menlo, monospace">[Guardrail breaches]</text>
  <text x="668" y="555" fill="#a6a6ad" font-size="10.5" font-family="ui-monospace, SFMono-Regular, Menlo, monospace">[Margin at risk]</text>
  <text x="668" y="570" fill="#a6a6ad" font-size="10.5" font-family="ui-monospace, SFMono-Regular, Menlo, monospace">guardrail_summary[action]</text>
  </g>
  </g>
  <text x="20" y="756" fill="#7d7d85" font-size="10">Layout generated from powerbi/report_spec.py — not a screenshot of Power BI Desktop.</text>
</svg>
