<svg xmlns="http://www.w3.org/2000/svg" viewBox="0 0 1280 764" width="1280" height="764" role="img" aria-label="Layout of the Price waterfall page: 9 visuals on a 1280 by 720 canvas">
  <rect width="1280" height="764" fill="#0c0c0f"/>
  <text x="20" y="27" fill="#f2f2f4" font-size="15" font-weight="700">Price waterfall</text>
  <text x="1260" y="27" fill="#7d7d85" font-size="11.5" text-anchor="end">page 2 of 19 · 9 visuals · bar, card, column, slicer, waterfall</text>
  <g transform="translate(0 44)">
  <g><rect x="20" y="20" width="300" height="118" rx="8" fill="#141416" stroke="#2c2c31" stroke-width="1"/>
  <rect x="20" y="20" width="4" height="118" rx="2" fill="#3987e5"/>
  <text x="34" y="41" fill="#f2f2f4" font-size="12.5" font-weight="600">List value</text>
  <text x="34" y="57" fill="#3987e5" font-size="10.5" letter-spacing="0.06em">CARD</text>
  <text x="34" y="75" fill="#a6a6ad" font-size="10.5" font-family="ui-monospace, SFMono-Regular, Menlo, monospace">[List value]</text>
  </g>
  <g><rect x="330" y="20" width="296" height="118" rx="8" fill="#141416" stroke="#2c2c31" stroke-width="1"/>
  <rect x="330" y="20" width="4" height="118" rx="2" fill="#3987e5"/>
  <text x="344" y="41" fill="#f2f2f4" font-size="12.5" font-weight="600">Invoice revenue</text>
  <text x="344" y="57" fill="#3987e5" font-size="10.5" letter-spacing="0.06em">CARD</text>
  <text x="344" y="75" fill="#a6a6ad" font-size="10.5" font-family="ui-monospace, SFMono-Regular, Menlo, monospace">[Invoice revenue]</text>
  </g>
  <g><rect x="634" y="20" width="300" height="118" rx="8" fill="#141416" stroke="#2c2c31" stroke-width="1"/>
  <rect x="634" y="20" width="4" height="118" rx="2" fill="#3987e5"/>
  <text x="648" y="41" fill="#f2f2f4" font-size="12.5" font-weight="600">Pocket revenue</text>
  <text x="648" y="57" fill="#3987e5" font-size="10.5" letter-spacing="0.06em">CARD</text>
  <text x="648" y="75" fill="#a6a6ad" font-size="10.5" font-family="ui-monospace, SFMono-Regular, Menlo, monospace">[Pocket revenue]</text>
  </g>
  <g><rect x="942" y="20" width="318" height="118" rx="8" fill="#141416" stroke="#2c2c31" stroke-width="1"/>
  <rect x="942" y="20" width="4" height="118" rx="2" fill="#3987e5"/>
  <text x="956" y="41" fill="#f2f2f4" font-size="12.5" font-weight="600">Leakage %</text>
  <text x="956" y="57" fill="#3987e5" font-size="10.5" letter-spacing="0.06em">CARD</text>
  <text x="956" y="75" fill="#a6a6ad" font-size="10.5" font-family="ui-monospace, SFMono-Regular, Menlo, monospace">[Leakage %]</text>
  </g>
  <g><rect x="20" y="152" width="1240" height="288" rx="8" fill="#141416" stroke="#2c2c31" stroke-width="1"/>
  <rect x="20" y="152" width="4" height="288" rx="2" fill="#d95926"/>
  <text x="34" y="173" fill="#f2f2f4" font-size="12.5" font-weight="600">List value to pocket margin</text>
  <text x="34" y="189" fill="#d95926" font-size="10.5" letter-spacing="0.06em">WATERFALL</text>
  <text x="34" y="207" fill="#a6a6ad" font-size="10.5" font-family="ui-monospace, SFMono-Regular, Menlo, monospace">price_waterfall[step]</text>
  <text x="34" y="222" fill="#a6a6ad" font-size="10.5" font-family="ui-monospace, SFMono-Regular, Menlo, monospace">[Waterfall step]</text>
  </g>
  <g><rect x="20" y="448" width="620" height="252" rx="8" fill="#141416" stroke="#2c2c31" stroke-width="1"/>
  <rect x="20" y="448" width="4" height="252" rx="2" fill="#c98500"/>
  <text x="34" y="469" fill="#f2f2f4" font-size="12.5" font-weight="600">Which deduction costs the most</text>
  <text x="34" y="485" fill="#c98500" font-size="10.5" letter-spacing="0.06em">BAR</text>
  <text x="34" y="503" fill="#a6a6ad" font-size="10.5" font-family="ui-monospace, SFMono-Regular, Menlo, monospace">leakage_by_dimension[deduction]</text>
  <text x="34" y="518" fill="#a6a6ad" font-size="10.5" font-family="ui-monospace, SFMono-Regular, Menlo, monospace">[Deduction amount]</text>
  </g>
  <g><rect x="654" y="448" width="400" height="252" rx="8" fill="#141416" stroke="#2c2c31" stroke-width="1"/>
  <rect x="654" y="448" width="4" height="252" rx="2" fill="#c98500"/>
  <text x="668" y="469" fill="#f2f2f4" font-size="12.5" font-weight="600">Leakage rate by member</text>
  <text x="668" y="485" fill="#c98500" font-size="10.5" letter-spacing="0.06em">COLUMN</text>
  <text x="668" y="503" fill="#a6a6ad" font-size="10.5" font-family="ui-monospace, SFMono-Regular, Menlo, monospace">leakage_by_dimension[member]</text>
  <text x="668" y="518" fill="#a6a6ad" font-size="10.5" font-family="ui-monospace, SFMono-Regular, Menlo, monospace">[Deduction % of list]</text>
  </g>
  <g><rect x="1068" y="448" width="192" height="76" rx="8" fill="#141416" stroke="#2c2c31" stroke-width="1"/>
  <rect x="1068" y="448" width="4" height="76" rx="2" fill="#d55181"/>
  <text x="1082" y="469" fill="#f2f2f4" font-size="12.5" font-weight="600">Cut by</text>
  <text x="1082" y="485" fill="#d55181" font-size="10.5" letter-spacing="0.06em">SLICER</text>
  <text x="1082" y="503" fill="#a6a6ad" font-size="10.5" font-family="ui-monospace, SFMono-Regular, Menlo, monospace">leakage_by_dimension[dimension]</text>
  </g>
  <g><rect x="1068" y="534" width="192" height="76" rx="8" fill="#141416" stroke="#2c2c31" stroke-width="1"/>
  <rect x="1068" y="534" width="4" height="76" rx="2" fill="#d55181"/>
  <text x="1082" y="555" fill="#f2f2f4" font-size="12.5" font-weight="600">Bucket</text>
  <text x="1082" y="571" fill="#d55181" font-size="10.5" letter-spacing="0.06em">SLICER</text>
  <text x="1082" y="589" fill="#a6a6ad" font-size="10.5" font-family="ui-monospace, SFMono-Regular, Menlo, monospace">leakage_by_dimension[bucket]</text>
  </g>
  </g>
  <text x="20" y="756" fill="#7d7d85" font-size="10">Layout generated from powerbi/report_spec.py — not a screenshot of Power BI Desktop.</text>
</svg>
