<svg xmlns="http://www.w3.org/2000/svg" viewBox="0 0 1280 764" width="1280" height="764" role="img" aria-label="Layout of the Unit economics page: 19 visuals on a 1280 by 720 canvas">
  <rect width="1280" height="764" fill="#0c0c0f"/>
  <text x="20" y="27" fill="#f2f2f4" font-size="15" font-weight="700">Unit economics</text>
  <text x="1260" y="27" fill="#7d7d85" font-size="11.5" text-anchor="end">page 9 of 19 · 19 visuals · bar, card, filter_panel, filters_button, line, nav, page_header, panel_background, panel_clear, panel_close, panel_title, slicer, table</text>
  <g transform="translate(0 44)">
  <g><rect x="24" y="16" width="720" height="56" rx="8" fill="#141416" stroke="#2c2c31" stroke-width="1"/>
  <rect x="24" y="16" width="4" height="56" rx="2" fill="#7d7d85"/>
  <text x="38" y="37" fill="#f2f2f4" font-size="12.5" font-weight="600">Page Header</text>
  <text x="38" y="53" fill="#7d7d85" font-size="10.5" letter-spacing="0.06em">PAGE HEADER</text>
  </g>
  <g><rect x="1168" y="24" width="88" height="40" rx="8" fill="#141416" stroke="#2c2c31" stroke-width="1"/>
  <rect x="1168" y="24" width="4" height="40" rx="2" fill="#7d7d85"/>
  <text x="1182" y="45" fill="#f2f2f4" font-size="12.5" font-weight="600">Filters Bu…</text>
  <text x="1182" y="61" fill="#7d7d85" font-size="10.5" letter-spacing="0.06em">FILTERS BUTTON</text>
  </g>
  <g><rect x="1064" y="24" width="88" height="40" rx="8" fill="#141416" stroke="#2c2c31" stroke-width="1"/>
  <rect x="1064" y="24" width="4" height="40" rx="2" fill="#7d7d85"/>
  <text x="1078" y="45" fill="#f2f2f4" font-size="12.5" font-weight="600">Nav</text>
  <text x="1078" y="61" fill="#7d7d85" font-size="10.5" letter-spacing="0.06em">NAV</text>
  </g>
  <g><rect x="968" y="24" width="88" height="40" rx="8" fill="#141416" stroke="#2c2c31" stroke-width="1"/>
  <rect x="968" y="24" width="4" height="40" rx="2" fill="#7d7d85"/>
  <text x="982" y="45" fill="#f2f2f4" font-size="12.5" font-weight="600">Nav</text>
  <text x="982" y="61" fill="#7d7d85" font-size="10.5" letter-spacing="0.06em">NAV</text>
  </g>
  <g><rect x="20" y="88" width="300" height="107" rx="8" fill="#141416" stroke="#2c2c31" stroke-width="1"/>
  <rect x="20" y="88" width="4" height="107" rx="2" fill="#3987e5"/>
  <text x="34" y="109" fill="#f2f2f4" font-size="12.5" font-weight="600">Contribution per unit</text>
  <text x="34" y="125" fill="#3987e5" font-size="10.5" letter-spacing="0.06em">CARD</text>
  <text x="34" y="143" fill="#a6a6ad" font-size="10.5" font-family="ui-monospace, SFMono-Regular, Menlo, monospace">[Contribution per unit]</text>
  </g>
  <g><rect x="330" y="88" width="296" height="107" rx="8" fill="#141416" stroke="#2c2c31" stroke-width="1"/>
  <rect x="330" y="88" width="4" height="107" rx="2" fill="#3987e5"/>
  <text x="344" y="109" fill="#f2f2f4" font-size="12.5" font-weight="600">Contribution %</text>
  <text x="344" y="125" fill="#3987e5" font-size="10.5" letter-spacing="0.06em">CARD</text>
  <text x="344" y="143" fill="#a6a6ad" font-size="10.5" font-family="ui-monospace, SFMono-Regular, Menlo, monospace">[Contribution %]</text>
  </g>
  <g><rect x="634" y="88" width="300" height="107" rx="8" fill="#141416" stroke="#2c2c31" stroke-width="1"/>
  <rect x="634" y="88" width="4" height="107" rx="2" fill="#3987e5"/>
  <text x="648" y="109" fill="#f2f2f4" font-size="12.5" font-weight="600">Cost to serve %</text>
  <text x="648" y="125" fill="#3987e5" font-size="10.5" letter-spacing="0.06em">CARD</text>
  <text x="648" y="143" fill="#a6a6ad" font-size="10.5" font-family="ui-monospace, SFMono-Regular, Menlo, monospace">[Cost to serve %]</text>
  </g>
  <g><rect x="942" y="88" width="318" height="107" rx="8" fill="#141416" stroke="#2c2c31" stroke-width="1"/>
  <rect x="942" y="88" width="4" height="107" rx="2" fill="#3987e5"/>
  <text x="956" y="109" fill="#f2f2f4" font-size="12.5" font-weight="600">Margin of safety</text>
  <text x="956" y="125" fill="#3987e5" font-size="10.5" letter-spacing="0.06em">CARD</text>
  <text x="956" y="143" fill="#a6a6ad" font-size="10.5" font-family="ui-monospace, SFMono-Regular, Menlo, monospace">[Margin of safety]</text>
  </g>
  <g><rect x="20" y="208" width="780" height="246" rx="8" fill="#141416" stroke="#2c2c31" stroke-width="1"/>
  <rect x="20" y="208" width="4" height="246" rx="2" fill="#199e70"/>
  <text x="34" y="229" fill="#f2f2f4" font-size="12.5" font-weight="600">Break-even: where revenue overtakes total cost</text>
  <text x="34" y="245" fill="#199e70" font-size="10.5" letter-spacing="0.06em">LINE</text>
  <text x="34" y="263" fill="#a6a6ad" font-size="10.5" font-family="ui-monospace, SFMono-Regular, Menlo, monospace">break_even_curve[quantity]</text>
  <text x="34" y="278" fill="#a6a6ad" font-size="10.5" font-family="ui-monospace, SFMono-Regular, Menlo, monospace">[Curve revenue]</text>
  <text x="34" y="293" fill="#a6a6ad" font-size="10.5" font-family="ui-monospace, SFMono-Regular, Menlo, monospace">[Curve fixed cost]</text>
  <text x="34" y="308" fill="#a6a6ad" font-size="10.5" font-family="ui-monospace, SFMono-Regular, Menlo, monospace">[Curve variable cost]</text>
  <text x="34" y="323" fill="#a6a6ad" font-size="10.5" font-family="ui-monospace, SFMono-Regular, Menlo, monospace">[Curve total cost]</text>
  </g>
  <g><rect x="814" y="208" width="446" height="246" rx="8" fill="#141416" stroke="#2c2c31" stroke-width="1"/>
  <rect x="814" y="208" width="4" height="246" rx="2" fill="#7d7d85"/>
  <text x="828" y="229" fill="#f2f2f4" font-size="12.5" font-weight="600">Markup is not margin</text>
  <text x="828" y="245" fill="#7d7d85" font-size="10.5" letter-spacing="0.06em">TABLE</text>
  <text x="828" y="263" fill="#a6a6ad" font-size="10.5" font-family="ui-monospace, SFMono-Regular, Menlo, monospace">markup_vs_margin[rate]</text>
  <text x="828" y="278" fill="#a6a6ad" font-size="10.5" font-family="ui-monospace, SFMono-Regular, Menlo, monospace">[Margin read as markup]</text>
  <text x="828" y="293" fill="#a6a6ad" font-size="10.5" font-family="ui-monospace, SFMono-Regular, Menlo, monospace">[Markup needed]</text>
  <text x="828" y="308" fill="#a6a6ad" font-size="10.5" font-family="ui-monospace, SFMono-Regular, Menlo, monospace">[Markup margin gap]</text>
  </g>
  <g><rect x="20" y="470" width="500" height="234" rx="8" fill="#141416" stroke="#2c2c31" stroke-width="1"/>
  <rect x="20" y="470" width="4" height="234" rx="2" fill="#c98500"/>
  <text x="34" y="491" fill="#f2f2f4" font-size="12.5" font-weight="600">Contribution by category</text>
  <text x="34" y="507" fill="#c98500" font-size="10.5" letter-spacing="0.06em">BAR</text>
  <text x="34" y="525" fill="#a6a6ad" font-size="10.5" font-family="ui-monospace, SFMono-Regular, Menlo, monospace">dim_product[category]</text>
  <text x="34" y="540" fill="#a6a6ad" font-size="10.5" font-family="ui-monospace, SFMono-Regular, Menlo, monospace">[Contribution $]</text>
  </g>
  <g><rect x="534" y="470" width="726" height="234" rx="8" fill="#141416" stroke="#2c2c31" stroke-width="1"/>
  <rect x="534" y="470" width="4" height="234" rx="2" fill="#7d7d85"/>
  <text x="548" y="491" fill="#f2f2f4" font-size="12.5" font-weight="600">Break-even by product</text>
  <text x="548" y="507" fill="#7d7d85" font-size="10.5" letter-spacing="0.06em">TABLE</text>
  <text x="548" y="525" fill="#a6a6ad" font-size="10.5" font-family="ui-monospace, SFMono-Regular, Menlo, monospace">dim_product[description]</text>
  <text x="548" y="540" fill="#a6a6ad" font-size="10.5" font-family="ui-monospace, SFMono-Regular, Menlo, monospace">[Contribution per unit]</text>
  <text x="548" y="555" fill="#a6a6ad" font-size="10.5" font-family="ui-monospace, SFMono-Regular, Menlo, monospace">[Product break-even units]</text>
  <text x="548" y="570" fill="#a6a6ad" font-size="10.5" font-family="ui-monospace, SFMono-Regular, Menlo, monospace">break_even_products[margin_of_safety]</text>
  </g>
  </g>
  <text x="20" y="756" fill="#7d7d85" font-size="10">Layout generated from powerbi/report_spec.py — not a screenshot of Power BI Desktop.</text>
</svg>
