<svg xmlns="http://www.w3.org/2000/svg" viewBox="0 0 1280 764" width="1280" height="764" role="img" aria-label="Layout of the What-if simulator page: 12 visuals on a 1280 by 720 canvas">
  <rect width="1280" height="764" fill="#0c0c0f"/>
  <text x="20" y="27" fill="#f2f2f4" font-size="15" font-weight="700">What-if simulator</text>
  <text x="1260" y="27" fill="#7d7d85" font-size="11.5" text-anchor="end">page 10 of 19 · 12 visuals · bar, card, column, slicer, table</text>
  <g transform="translate(0 44)">
  <g><rect x="20" y="20" width="300" height="118" rx="8" fill="#141416" stroke="#2c2c31" stroke-width="1"/>
  <rect x="20" y="20" width="4" height="118" rx="2" fill="#3987e5"/>
  <text x="34" y="41" fill="#f2f2f4" font-size="12.5" font-weight="600">Scenario revenue</text>
  <text x="34" y="57" fill="#3987e5" font-size="10.5" letter-spacing="0.06em">CARD</text>
  <text x="34" y="75" fill="#a6a6ad" font-size="10.5" font-family="ui-monospace, SFMono-Regular, Menlo, monospace">[Scenario revenue]</text>
  </g>
  <g><rect x="330" y="20" width="296" height="118" rx="8" fill="#141416" stroke="#2c2c31" stroke-width="1"/>
  <rect x="330" y="20" width="4" height="118" rx="2" fill="#3987e5"/>
  <text x="344" y="41" fill="#f2f2f4" font-size="12.5" font-weight="600">Scenario margin $</text>
  <text x="344" y="57" fill="#3987e5" font-size="10.5" letter-spacing="0.06em">CARD</text>
  <text x="344" y="75" fill="#a6a6ad" font-size="10.5" font-family="ui-monospace, SFMono-Regular, Menlo, monospace">[Scenario margin $]</text>
  </g>
  <g><rect x="634" y="20" width="300" height="118" rx="8" fill="#141416" stroke="#2c2c31" stroke-width="1"/>
  <rect x="634" y="20" width="4" height="118" rx="2" fill="#3987e5"/>
  <text x="648" y="41" fill="#f2f2f4" font-size="12.5" font-weight="600">Scenario margin %</text>
  <text x="648" y="57" fill="#3987e5" font-size="10.5" letter-spacing="0.06em">CARD</text>
  <text x="648" y="75" fill="#a6a6ad" font-size="10.5" font-family="ui-monospace, SFMono-Regular, Menlo, monospace">[Scenario margin %]</text>
  </g>
  <g><rect x="942" y="20" width="318" height="118" rx="8" fill="#141416" stroke="#2c2c31" stroke-width="1"/>
  <rect x="942" y="20" width="4" height="118" rx="2" fill="#3987e5"/>
  <text x="956" y="41" fill="#f2f2f4" font-size="12.5" font-weight="600">Scenario margin delta</text>
  <text x="956" y="57" fill="#3987e5" font-size="10.5" letter-spacing="0.06em">CARD</text>
  <text x="956" y="75" fill="#a6a6ad" font-size="10.5" font-family="ui-monospace, SFMono-Regular, Menlo, monospace">[Scenario margin delta]</text>
  </g>
  <g><rect x="20" y="152" width="300" height="76" rx="8" fill="#141416" stroke="#2c2c31" stroke-width="1"/>
  <rect x="20" y="152" width="4" height="76" rx="2" fill="#d55181"/>
  <text x="34" y="173" fill="#f2f2f4" font-size="12.5" font-weight="600">Price change</text>
  <text x="34" y="189" fill="#d55181" font-size="10.5" letter-spacing="0.06em">SLICER</text>
  <text x="34" y="207" fill="#a6a6ad" font-size="10.5" font-family="ui-monospace, SFMono-Regular, Menlo, monospace">PriceChange[Price change %]</text>
  </g>
  <g><rect x="330" y="152" width="296" height="76" rx="8" fill="#141416" stroke="#2c2c31" stroke-width="1"/>
  <rect x="330" y="152" width="4" height="76" rx="2" fill="#d55181"/>
  <text x="344" y="173" fill="#f2f2f4" font-size="12.5" font-weight="600">Cost change</text>
  <text x="344" y="189" fill="#d55181" font-size="10.5" letter-spacing="0.06em">SLICER</text>
  <text x="344" y="207" fill="#a6a6ad" font-size="10.5" font-family="ui-monospace, SFMono-Regular, Menlo, monospace">CostChange[Cost change %]</text>
  </g>
  <g><rect x="634" y="152" width="300" height="76" rx="8" fill="#141416" stroke="#2c2c31" stroke-width="1"/>
  <rect x="634" y="152" width="4" height="76" rx="2" fill="#d55181"/>
  <text x="648" y="173" fill="#f2f2f4" font-size="12.5" font-weight="600">Volume change</text>
  <text x="648" y="189" fill="#d55181" font-size="10.5" letter-spacing="0.06em">SLICER</text>
  <text x="648" y="207" fill="#a6a6ad" font-size="10.5" font-family="ui-monospace, SFMono-Regular, Menlo, monospace">VolumeChange[Volume change %]</text>
  </g>
  <g><rect x="942" y="152" width="318" height="76" rx="8" fill="#141416" stroke="#2c2c31" stroke-width="1"/>
  <rect x="942" y="152" width="4" height="76" rx="2" fill="#d55181"/>
  <text x="956" y="173" fill="#f2f2f4" font-size="12.5" font-weight="600">Discount change</text>
  <text x="956" y="189" fill="#d55181" font-size="10.5" letter-spacing="0.06em">SLICER</text>
  <text x="956" y="207" fill="#a6a6ad" font-size="10.5" font-family="ui-monospace, SFMono-Regular, Menlo, monospace">DiscountChange[Discount change pts]</text>
  </g>
  <g><rect x="20" y="244" width="620" height="214" rx="8" fill="#141416" stroke="#2c2c31" stroke-width="1"/>
  <rect x="20" y="244" width="4" height="214" rx="2" fill="#c98500"/>
  <text x="34" y="265" fill="#f2f2f4" font-size="12.5" font-weight="600">Worst, base and best</text>
  <text x="34" y="281" fill="#c98500" font-size="10.5" letter-spacing="0.06em">COLUMN</text>
  <text x="34" y="299" fill="#a6a6ad" font-size="10.5" font-family="ui-monospace, SFMono-Regular, Menlo, monospace">scenario_three_point[scenario]</text>
  <text x="34" y="314" fill="#a6a6ad" font-size="10.5" font-family="ui-monospace, SFMono-Regular, Menlo, monospace">[Three-point operating profit]</text>
  </g>
  <g><rect x="654" y="244" width="606" height="214" rx="8" fill="#141416" stroke="#2c2c31" stroke-width="1"/>
  <rect x="654" y="244" width="4" height="214" rx="2" fill="#c98500"/>
  <text x="668" y="265" fill="#f2f2f4" font-size="12.5" font-weight="600">What moves profit most</text>
  <text x="668" y="281" fill="#c98500" font-size="10.5" letter-spacing="0.06em">BAR</text>
  <text x="668" y="299" fill="#a6a6ad" font-size="10.5" font-family="ui-monospace, SFMono-Regular, Menlo, monospace">scenario_tornado[input]</text>
  <text x="668" y="314" fill="#a6a6ad" font-size="10.5" font-family="ui-monospace, SFMono-Regular, Menlo, monospace">[Tornado downside]</text>
  <text x="668" y="329" fill="#a6a6ad" font-size="10.5" font-family="ui-monospace, SFMono-Regular, Menlo, monospace">[Tornado upside]</text>
  </g>
  <g><rect x="20" y="472" width="620" height="228" rx="8" fill="#141416" stroke="#2c2c31" stroke-width="1"/>
  <rect x="20" y="472" width="4" height="228" rx="2" fill="#7d7d85"/>
  <text x="34" y="493" fill="#f2f2f4" font-size="12.5" font-weight="600">The three cases</text>
  <text x="34" y="509" fill="#7d7d85" font-size="10.5" letter-spacing="0.06em">TABLE</text>
  <text x="34" y="527" fill="#a6a6ad" font-size="10.5" font-family="ui-monospace, SFMono-Regular, Menlo, monospace">scenario_three_point[scenario]</text>
  <text x="34" y="542" fill="#a6a6ad" font-size="10.5" font-family="ui-monospace, SFMono-Regular, Menlo, monospace">[Three-point operating profit]</text>
  <text x="34" y="557" fill="#a6a6ad" font-size="10.5" font-family="ui-monospace, SFMono-Regular, Menlo, monospace">[Three-point contribution %]</text>
  <text x="34" y="572" fill="#a6a6ad" font-size="10.5" font-family="ui-monospace, SFMono-Regular, Menlo, monospace">[Three-point delta]</text>
  </g>
  <g><rect x="654" y="472" width="606" height="228" rx="8" fill="#141416" stroke="#2c2c31" stroke-width="1"/>
  <rect x="654" y="472" width="4" height="228" rx="2" fill="#7d7d85"/>
  <text x="668" y="493" fill="#f2f2f4" font-size="12.5" font-weight="600">Where each input breaks even</text>
  <text x="668" y="509" fill="#7d7d85" font-size="10.5" letter-spacing="0.06em">TABLE</text>
  <text x="668" y="527" fill="#a6a6ad" font-size="10.5" font-family="ui-monospace, SFMono-Regular, Menlo, monospace">scenario_thresholds[input]</text>
  <text x="668" y="542" fill="#a6a6ad" font-size="10.5" font-family="ui-monospace, SFMono-Regular, Menlo, monospace">[Break-even input]</text>
  <text x="668" y="557" fill="#a6a6ad" font-size="10.5" font-family="ui-monospace, SFMono-Regular, Menlo, monospace">scenario_thresholds[reason]</text>
  </g>
  </g>
  <text x="20" y="756" fill="#7d7d85" font-size="10">Layout generated from powerbi/report_spec.py — not a screenshot of Power BI Desktop.</text>
</svg>
